<svg width="21" height="15" viewBox="0 0 21 15" fill="none" xmlns="http://www.w3.org/2000/svg">
<path d="M0.915039 2.20155C0.915039 1.17217 2.0687 0.5639 2.91823 1.14585L10.5933 6.40534C10.7641 6.52242 10.9039 6.67921 11.0008 6.86225C11.0976 7.04529 11.1486 7.24911 11.1493 7.45619C11.15 7.66328 11.1005 7.86744 11.0049 8.05115C10.9093 8.23486 10.7706 8.39262 10.6006 8.51089L2.92481 13.8493C2.07748 14.4393 0.915039 13.831 0.915039 12.7987V2.20155Z" fill="#171717"/>
<path d="M10.5957 2.20155C10.5957 1.17217 11.7494 0.5639 12.5989 1.14585L20.2739 6.40534C20.4447 6.52242 20.5846 6.67921 20.6814 6.86225C20.7783 7.04529 20.8292 7.24911 20.83 7.45619C20.8307 7.66328 20.7811 7.86744 20.6855 8.05115C20.59 8.23486 20.4512 8.39262 20.2812 8.51089L12.6055 13.8493C11.7581 14.4393 10.5957 13.831 10.5957 12.7987V2.20155Z" fill="#171717"/>
</svg>
