<svg width="20" height="15" viewBox="0 0 20 15" fill="none" xmlns="http://www.w3.org/2000/svg">
<path d="M19.915 12.7985C19.915 13.8278 18.7614 14.4361 17.9118 13.8541L10.2368 8.59466C10.066 8.47758 9.92618 8.32079 9.82932 8.13775C9.73247 7.95471 9.68149 7.75089 9.68077 7.54381C9.68006 7.33672 9.72962 7.13256 9.8252 6.94885C9.92078 6.76514 10.0595 6.60738 10.2295 6.48911L17.9053 1.15067C18.7526 0.560679 19.915 1.16895 19.915 2.20125V12.7985Z" fill="#171717"/>
<path d="M10.2344 12.7985C10.2344 13.8278 9.08071 14.4361 8.23118 13.8541L0.556161 8.59466C0.38535 8.47758 0.245514 8.32079 0.14866 8.13775C0.0518055 7.95471 0.000829697 7.75089 0.000110626 7.54381C-0.000608444 7.33672 0.0489511 7.13256 0.144531 6.94885C0.240112 6.76514 0.378858 6.60738 0.548851 6.48911L8.2246 1.15067C9.07194 0.560679 10.2344 1.16895 10.2344 2.20125L10.2344 12.7985Z" fill="#171717"/>
</svg>
