<svg width="16" height="15" viewBox="0 0 16 15" fill="none" xmlns="http://www.w3.org/2000/svg">
<path d="M13.9074 3.51061C13.8759 3.43485 13.8299 3.36603 13.7718 3.30811L11.8968 1.43311C11.8391 1.37342 11.7701 1.32581 11.6939 1.29305C11.6176 1.2603 11.5356 1.24305 11.4526 1.24233C11.3696 1.24161 11.2873 1.25743 11.2105 1.28885C11.1337 1.32028 11.0639 1.36668 11.0053 1.42537C10.9466 1.48405 10.9002 1.55383 10.8687 1.63064C10.8373 1.70745 10.8215 1.78975 10.8222 1.87274C10.8229 1.95573 10.8402 2.03774 10.8729 2.11399C10.9057 2.19025 10.9533 2.25921 11.013 2.31686L11.8211 3.12499H5.82988C5.00108 3.12499 4.20622 3.45423 3.62017 4.04028C3.03412 4.62633 2.70488 5.42119 2.70488 6.24999V7.49999C2.70488 7.66575 2.77073 7.82472 2.88794 7.94193C3.00515 8.05914 3.16412 8.12499 3.32988 8.12499C3.49564 8.12499 3.65461 8.05914 3.77182 7.94193C3.88903 7.82472 3.95488 7.66575 3.95488 7.49999V6.24999C3.95488 5.75271 4.15242 5.27579 4.50405 4.92416C4.85568 4.57253 5.3326 4.37499 5.82988 4.37499H11.8211L11.013 5.18311C10.8992 5.30099 10.8362 5.45887 10.8376 5.62274C10.839 5.78661 10.9047 5.94337 11.0206 6.05925C11.1365 6.17513 11.2933 6.24086 11.4571 6.24229C11.621 6.24371 11.7789 6.18071 11.8968 6.06686L13.7718 4.19186C13.8299 4.1339 13.876 4.06503 13.9074 3.9892C13.9388 3.91337 13.955 3.83207 13.9549 3.74999M13.9074 3.51061C13.9386 3.58591 13.9547 3.6666 13.9549 3.74811L13.9074 3.51061ZM2.75238 11.0106C2.70481 11.1248 2.69231 11.2506 2.71646 11.3719C2.74061 11.4932 2.80033 11.6046 2.888 11.6919L4.763 13.5669C4.88088 13.6807 5.03876 13.7437 5.20263 13.7423C5.3665 13.7409 5.52326 13.6751 5.63914 13.5593C5.75502 13.4434 5.82075 13.2866 5.82217 13.1227C5.8236 12.9589 5.7606 12.801 5.64675 12.6831L4.83863 11.875H10.8299C11.6587 11.875 12.4535 11.5457 13.0396 10.9597C13.6256 10.3736 13.9549 9.57879 13.9549 8.74999V7.49999C13.9549 7.33423 13.889 7.17526 13.7718 7.05805C13.6546 6.94084 13.4956 6.87499 13.3299 6.87499C13.1641 6.87499 13.0051 6.94084 12.8879 7.05805C12.7707 7.17526 12.7049 7.33423 12.7049 7.49999V8.74999C12.7049 9.24727 12.5073 9.72418 12.1557 10.0758C11.8041 10.4274 11.3272 10.625 10.8299 10.625H4.83863L5.64675 9.81686C5.70645 9.75921 5.75406 9.69024 5.78682 9.61399C5.81957 9.53774 5.83681 9.45573 5.83754 9.37274C5.83826 9.28975 5.82244 9.20745 5.79102 9.13064C5.75959 9.05383 5.71318 8.98405 5.6545 8.92537C5.59582 8.86668 5.52603 8.82028 5.44922 8.78885C5.37241 8.75743 5.29011 8.74161 5.20713 8.74233C5.12414 8.74305 5.04213 8.7603 4.96588 8.79305C4.88962 8.82581 4.82066 8.87342 4.763 8.93312L2.888 10.8081M2.75238 11.0106C2.78359 10.9354 2.82924 10.867 2.88675 10.8094L2.75238 11.0106Z" fill="#737373"/>
</svg>
