<svg width="15" height="15" viewBox="0 0 15 15" fill="none" xmlns="http://www.w3.org/2000/svg">
<path d="M13.7025 4.13561C13.6711 4.05985 13.625 3.99103 13.5669 3.93311L11.6919 2.05811C11.6342 1.99842 11.5653 1.95081 11.489 1.91805C11.4128 1.8853 11.3307 1.86805 11.2478 1.86733C11.1648 1.86661 11.0825 1.88243 11.0057 1.91385C10.9288 1.94528 10.8591 1.99168 10.8004 2.05037C10.7417 2.10905 10.6953 2.17883 10.6639 2.25564C10.6324 2.33245 10.6166 2.41475 10.6173 2.49774C10.6181 2.58073 10.6353 2.66274 10.6681 2.73899C10.7008 2.81524 10.7484 2.88421 10.8081 2.94186L11.6163 3.74999H9.54063C9.0009 3.74996 8.47036 3.88973 8.0007 4.15566C7.53104 4.4216 7.13826 4.80465 6.86063 5.26749L4.56687 9.08937C4.40041 9.36693 4.16492 9.59668 3.88334 9.75625C3.60175 9.91583 3.28366 9.9998 2.96 9.99999H1.875C1.70924 9.99999 1.55027 10.0658 1.43306 10.183C1.31585 10.3003 1.25 10.4592 1.25 10.625C1.25 10.7907 1.31585 10.9497 1.43306 11.0669C1.55027 11.1841 1.70924 11.25 1.875 11.25H2.95938C3.4991 11.25 4.02964 11.1103 4.4993 10.8443C4.96896 10.5784 5.36174 10.1953 5.63937 9.73249L7.93313 5.91061C8.09959 5.63305 8.33508 5.4033 8.61666 5.24372C8.89824 5.08415 9.21634 5.00018 9.54 4.99999H11.615L10.8075 5.80811C10.6937 5.92599 10.6307 6.08387 10.6321 6.24774C10.6335 6.41161 10.6992 6.56837 10.8151 6.68425C10.931 6.80013 11.0878 6.86586 11.2516 6.86729C11.4155 6.86871 11.5734 6.80571 11.6912 6.69186L13.5662 4.81686C13.6245 4.75895 13.6707 4.6901 13.7022 4.61427C13.7338 4.53844 13.75 4.45712 13.75 4.37499M13.7025 4.13561C13.7337 4.21091 13.7499 4.2916 13.75 4.37311L13.7025 4.13561Z" fill="#737373"/>
<path d="M13.5662 11.0675L11.6919 12.9425C11.5746 13.0597 11.4156 13.1255 11.2498 13.1254C11.084 13.1254 10.925 13.0595 10.8078 12.9422C10.6906 12.8249 10.6248 12.6659 10.6249 12.5001C10.6249 12.3343 10.6908 12.1753 10.8081 12.0581L11.6163 11.25H9.54063C9.0009 11.25 8.47036 11.1103 8.0007 10.8443C7.53104 10.5784 7.13826 10.1953 6.86063 9.7325L4.56687 5.91062C4.40041 5.63306 4.16492 5.40331 3.88334 5.24374C3.60175 5.08416 3.28366 5.00019 2.96 5H1.875C1.70924 5 1.55027 4.93415 1.43306 4.81694C1.31585 4.69973 1.25 4.54076 1.25 4.375C1.25 4.20924 1.31585 4.05027 1.43306 3.93306C1.55027 3.81585 1.70924 3.75 1.875 3.75H2.95938C3.4991 3.74997 4.02964 3.88974 4.4993 4.15567C4.96896 4.42161 5.36174 4.80466 5.63937 5.2675L7.93313 9.08938C8.09959 9.36694 8.33508 9.59669 8.61666 9.75626C8.89824 9.91584 9.21634 9.99981 9.54 10H11.615L10.8075 9.19187C10.6937 9.074 10.6307 8.91612 10.6321 8.75225C10.6335 8.58838 10.6992 8.43162 10.8151 8.31574C10.931 8.19986 11.0878 8.13413 11.2516 8.1327C11.4155 8.13128 11.5734 8.19428 11.6912 8.30813L13.5662 10.1831C13.6881 10.3044 13.7488 10.4644 13.7494 10.6231V10.625C13.7495 10.7072 13.7333 10.7887 13.7017 10.8646C13.6702 10.9406 13.6246 11.0095 13.5662 11.0675Z" fill="#737373"/>
</svg>
